<svg width="330" height="330" viewBox="0 0 100 100" fill="none" xmlns="http://www.w3.org/2000/svg">
  <title>Anthony Fu @ antfu.me</title>
  <style>
    @media (prefers-reduced-motion) {
      path {
        animation: none !important;
        stroke-dasharray: unset !important;
      }
    }

    @keyframes grow {
      0% {
        stroke-dashoffset: 1px;
        stroke-dasharray: 0 350px;
        opacity: 0;
      }

      10% {
        opacity: 1;
        transform: translate(0, 1%);
      }

      20% {
        transform: translate(0, 0);
      }

      40% {
        stroke-dasharray: 350px 0;
      }

      85% {
        stroke-dasharray: 350px 0;
      }

      95%,
      to {
        stroke-dasharray: 0 350px;
      }
    }

    path {
      stroke-dashoffset: 1px;
      stroke-dasharray: 350px 0;
      animation: grow 10s ease-out forwards infinite;
      transform-origin: center;
      stroke: #303030;
      animation-delay: 0s;
    }

    @media (prefers-color-scheme:dark) {
      path {
        stroke: #fdfdfd;
      }
    }
  </style>
  <path
     d="M 5.94 54.42 L 1.56 55.98 L 0 55.8 L 1.14 35.58 Q 1.38 30.36 1.8 25.2 A 86.157 86.157 0 0 1 2.524 18.997 A 72.73 72.73 0 0 1 3.15 15.51 Q 4.08 10.98 5.82 7.5 A 15.966 15.966 0 0 1 8.046 4.134 A 13.41 13.41 0 0 1 10.38 2.01 Q 13.2 0 17.4 0 A 9.586 9.586 0 0 1 19.885 0.304 A 6.714 6.714 0 0 1 23.34 2.46 A 8.681 8.681 0 0 1 25.323 6.952 A 11.755 11.755 0 0 1 25.44 8.64 A 11.539 11.539 0 0 1 25.16 11.241 A 8.73 8.73 0 0 1 24.03 13.98 A 13.283 13.283 0 0 1 21.709 16.753 A 12.011 12.011 0 0 1 20.64 17.61 A 31.133 31.133 0 0 1 18.836 18.807 Q 17.968 19.338 17.152 19.746 A 18.698 18.698 0 0 1 16.92 19.86 L 16.56 20.16 Q 14.94 21.42 13.44 22.17 A 16.609 16.609 0 0 1 12.827 22.463 Q 11.809 22.92 11.34 22.92 A 0.414 0.414 0 0 1 11.126 22.851 Q 10.83 22.671 10.44 22.02 Q 9.9 21.12 9.78 20.04 Q 9.743 19.517 9.81 19.075 A 3.048 3.048 0 0 1 9.93 18.57 Q 10.091 18.088 10.585 17.975 A 1.502 1.502 0 0 1 10.92 17.94 A 5.249 5.249 0 0 1 11.079 17.943 Q 11.41 17.954 12.09 18 Q 12.96 18.06 13.8 18.15 A 186.897 186.897 0 0 0 13.998 18.172 Q 14.589 18.234 14.686 18.24 A 0.268 0.268 0 0 0 14.7 18.24 Q 15.24 18.24 16.47 17.79 A 9.269 9.269 0 0 0 17.71 17.224 Q 18.283 16.912 18.879 16.5 A 15.502 15.502 0 0 0 19.05 16.38 A 8.748 8.748 0 0 0 20.973 14.488 A 10.371 10.371 0 0 0 21.39 13.89 A 6.016 6.016 0 0 0 22.229 11.769 A 8.371 8.371 0 0 0 22.38 10.14 A 6.864 6.864 0 0 0 22.193 8.488 A 4.537 4.537 0 0 0 20.76 6.09 Q 19.389 4.897 17.073 4.714 A 11.059 11.059 0 0 0 16.2 4.68 Q 12.6 4.68 10.47 6.51 A 10.197 10.197 0 0 0 8.052 9.622 A 13.292 13.292 0 0 0 7.29 11.43 A 27.087 27.087 0 0 0 6.327 15.153 A 35.302 35.302 0 0 0 5.88 18.39 Q 5.52 22.26 5.46 26.34 A 475.505 475.505 0 0 1 5.336 32.292 A 423.934 423.934 0 0 1 5.28 34.2 L 5.34 35.58 A 1671.079 1671.079 0 0 0 5.389 37.548 Q 5.411 38.418 5.437 39.374 A 3019.527 3019.527 0 0 0 5.49 41.37 Q 5.58 44.7 5.7 48.12 Q 5.82 51.54 5.94 54.42 Z M 36.847 40.208 A 9.814 9.814 0 0 0 44.64 43.86 A 9.343 9.343 0 0 0 51.33 41.119 A 14.693 14.693 0 0 0 53.64 38.19 Q 57.12 32.52 57.12 21.6 A 48.936 48.936 0 0 0 57.09 19.887 A 42.748 42.748 0 0 0 56.4 13.5 A 30.468 30.468 0 0 0 55.691 10.524 A 23.676 23.676 0 0 0 54.21 6.69 A 15.998 15.998 0 0 0 53.057 4.715 A 12.289 12.289 0 0 0 50.52 1.98 A 7.945 7.945 0 0 0 48.172 0.703 A 9.016 9.016 0 0 0 45.24 0.24 A 11.545 11.545 0 0 0 44.983 0.243 A 9.359 9.359 0 0 0 39.45 2.1 A 13.156 13.156 0 0 0 37.3 4.128 A 16.143 16.143 0 0 0 35.31 7.11 A 23.866 23.866 0 0 0 34.098 9.836 A 29.204 29.204 0 0 0 32.85 14.25 Q 32.04 18.24 32.04 22.56 A 49.589 49.589 0 0 0 32.283 27.613 Q 32.948 34.091 35.43 38.22 A 14.888 14.888 0 0 0 36.847 40.208 Z M 5.82 36.72 L 4.38 36.72 L 5.34 27.42 A 27.478 27.478 0 0 0 5.624 30.2 Q 5.85 31.646 6.231 32.896 A 16.249 16.249 0 0 0 6.36 33.3 Q 7.2 35.82 9.12 37.23 Q 10.684 38.379 13.204 38.592 A 14.216 14.216 0 0 0 14.4 38.64 Q 18.3 38.64 20.61 37.11 A 4.533 4.533 0 0 0 22.268 35.05 Q 22.614 34.241 22.777 33.205 A 12.987 12.987 0 0 0 22.92 31.2 Q 22.92 28.849 22.293 27.143 A 7.503 7.503 0 0 0 21.9 26.25 Q 20.88 24.3 19.53 23.1 Q 18.18 21.9 16.98 21.27 Q 15.945 20.727 15.535 20.429 A 2.201 2.201 0 0 1 15.42 20.34 L 17.7 19.08 L 17.7 19.62 A 11.579 11.579 0 0 1 20.037 20.743 A 15.71 15.71 0 0 1 21.87 22.08 A 13.629 13.629 0 0 1 24.635 25.29 A 16.405 16.405 0 0 1 25.32 26.49 Q 26.7 29.16 26.7 32.82 A 15.844 15.844 0 0 1 26.549 35.077 Q 26.381 36.245 26.025 37.216 A 7.955 7.955 0 0 1 25.53 38.31 A 9.539 9.539 0 0 1 24.101 40.294 A 7.952 7.952 0 0 1 22.53 41.58 A 13.223 13.223 0 0 1 20.104 42.779 A 11.389 11.389 0 0 1 18.81 43.17 Q 17.271 43.537 16.03 43.605 A 10.053 10.053 0 0 1 15.48 43.62 Q 13.022 43.62 11.285 42.746 A 6.646 6.646 0 0 1 10.71 42.42 Q 8.82 41.22 7.68 39.6 A 49.232 49.232 0 0 1 6.884 38.436 Q 6.5 37.856 6.181 37.331 A 25.616 25.616 0 0 1 5.82 36.72 Z M 44.7 38.64 Q 47.88 38.64 49.98 36.54 A 10.788 10.788 0 0 0 51.895 33.892 Q 52.618 32.51 53.1 30.78 Q 54.12 27.12 54.12 22.44 A 41.364 41.364 0 0 0 53.726 16.656 A 37.803 37.803 0 0 0 53.64 16.08 A 24.999 24.999 0 0 0 52.969 13.015 A 19.415 19.415 0 0 0 52.11 10.62 A 11.308 11.308 0 0 0 50.909 8.498 A 8.857 8.857 0 0 0 49.32 6.81 A 6.286 6.286 0 0 0 46.015 5.454 A 8.26 8.26 0 0 0 45.06 5.4 Q 41.94 5.4 39.69 7.38 Q 37.503 9.305 36.279 12.705 A 18.799 18.799 0 0 0 36.21 12.9 Q 35.057 16.219 34.985 20.593 A 35.675 35.675 0 0 0 34.98 21.18 A 46.869 46.869 0 0 0 35.106 24.713 Q 35.238 26.456 35.508 27.986 A 26.805 26.805 0 0 0 35.64 28.68 A 23.258 23.258 0 0 0 36.318 31.276 Q 36.841 32.874 37.56 34.14 A 10.94 10.94 0 0 0 38.836 35.958 A 8.219 8.219 0 0 0 40.62 37.5 Q 42.42 38.64 44.7 38.64 Z M 54.78 19.62 L 54.84 22.8 L 34.2 22.8 L 34.2 19.62 L 54.78 19.62 Z"
    stroke="black" stroke-width="1.5" stroke-linecap="round" stroke-linejoin="round" />
  
</svg>
